<?xml version="1.0" encoding="utf-8"?>
<!-- Generator: Adobe Illustrator 22.1.0, SVG Export Plug-In . SVG Version: 6.00 Build 0)  -->
<svg version="1.1" id="Layer_1" xmlns="http://www.w3.org/2000/svg" xmlns:xlink="http://www.w3.org/1999/xlink" x="0px" y="0px"
	 viewBox="0 0 1366 768" style="enable-background:new 0 0 1366 768;" xml:space="preserve">
<style type="text/css">
	.st0{fill:#FFFFFF;}
</style>
<g>
	<path class="st0" d="M377.3,261l41.4-69.1c3.8-6.4,8.5-9.9,13-9.9h70.5c4.6,0,9.2,3.5,13,9.9l41.4,69.1H377.3z"/>
	<path d="M502.3,185c3.4,0,7.2,3.1,10.4,8.5l38.7,64.5H382.6l38.7-64.5c3.2-5.4,7-8.5,10.4-8.5H502.3 M502.3,179h-70.5
		c-5.7,0-11.2,4-15.6,11.4L372,264h190l-44.2-73.6C513.4,183,507.9,179,502.3,179L502.3,179z"/>
</g>
<g>
	<path d="M382,494c-5,0-9-4-9-9V219c0-5,4-9,9-9h218.7l43.7-41.4c6.5-6.2,14.7-9.6,23.1-9.6h114c8.4,0,16.6,3.4,23.1,9.6l43.7,41.4
		H876c5,0,9,4,9,9v266c0,5-4,9-9,9H382z"/>
	<path d="M781.5,162c7.6,0,15.1,3.1,21,8.8l42.8,40.6l1.7,1.6h2.4H876c3.3,0,6,2.7,6,6v266c0,3.3-2.7,6-6,6H382c-3.3,0-6-2.7-6-6
		V219c0-3.3,2.7-6,6-6h217.5h2.4l1.7-1.6l42.8-40.6c6-5.7,13.5-8.8,21-8.8H781.5 M781.5,156h-114c-9.2,0-18,3.7-25.2,10.4L599.5,207
		H382c-6.6,0-12,5.4-12,12v266c0,6.6,5.4,12,12,12h494c6.6,0,12-5.4,12-12V219c0-6.6-5.4-12-12-12h-26.5l-42.8-40.6
		C799.5,159.7,790.6,156,781.5,156L781.5,156z"/>
</g>
<g>
	<circle class="st0" cx="725" cy="352" r="133.5"/>
	<path d="M725,219c35.5,0,68.9,13.8,94,39c25.1,25.1,39,58.5,39,94s-13.8,68.9-39,94s-58.5,39-94,39s-68.9-13.8-94-39
		s-39-58.5-39-94s13.8-68.9,39-94C656.1,232.8,689.5,219,725,219 M725,218c-74,0-134,60-134,134s60,134,134,134s134-60,134-134
		S799,218,725,218L725,218z"/>
</g>
<g>
	<path d="M725.5,207c38.9,0,75.4,15.1,102.9,42.6c27.5,27.5,42.6,64,42.6,102.9c0,38.9-15.1,75.4-42.6,102.9
		c-27.5,27.5-64,42.6-102.9,42.6s-75.4-15.1-102.9-42.6c-27.5-27.5-42.6-64-42.6-102.9c0-38.9,15.1-75.4,42.6-102.9
		C650.1,222.1,686.6,207,725.5,207 M725.5,206C644.6,206,579,271.6,579,352.5S644.6,499,725.5,499S872,433.4,872,352.5
		S806.4,206,725.5,206L725.5,206z"/>
</g>
<g id="Layer_2">
	<path d="M852,316c-3.2-1.2-6.5,1.1-11.3-1.6c-3.7-2.1-4.6-5-7.2-4.8c-2.6,0.2-3,3.2-6.4,4c-1.2,0.3-1.6,0-5.6-0.8
		c-7.4-1.5-8.6-1.1-9.6-2.4c-1.9-2.4,0.9-5.1-0.8-7.2c-2.4-3.1-10.5-1.2-15.3,0.8c-3.8,1.6-3.5,2.5-6.4,3.2c-6.2,1.6-9.3-1.9-12.1,0
		c-3,2.1-0.1,6.8-3.2,12.1c-2.7,4.5-6.2,3.3-9.6,7.2c-5.6,6.3-4.2,18,0,25.7c1.1,2.1,4.1,7.3,10.4,10.4c4.4,2.2,13,4.5,18.5,0.8
		c1.6-1.1,3-2.8,4.8-2.4c2,0.4,2.2,2.7,4.8,4c2.6,1.3,3.7-0.2,5.6,0.8c3.1,1.6,1.4,6.3,4,12.9c2.7,6.5,6.2,6.3,6.4,10.4
		c0.3,5.6-6.1,7.3-5.6,12.9c0.3,3.3,2.5,3.3,4.8,8.8c1.5,3.6,1.1,4.8,2.4,11.3c1.7,8.3,2.5,12.5,4.8,14.5c3.9,3.3,11.2,2.6,16.1,0
		c3.2-1.7,9.1-6.2,14.5-43.4c2-13.8,2.9-25.1,3.2-36.2C860.2,320.2,853.9,316.7,852,316z"/>
	<path d="M848.7,305.5c-1.4,1-4.6-0.2-6.4-1.6c-3.8-2.8-3.4-7.3-6.4-8c-1-0.2-2.4,0-3.2,0.8c-1.9,2,0.7,6-0.8,7.2
		c-1,0.8-3.6-0.1-4.8-1.6c-0.6-0.8-0.6-1.3-1.6-4.9c-0.5-1.8-0.7-2.6-0.9-3.1c-1.3-3.7-4.1-5.8-4.8-6.4c-1.8-1.4-4.9-3.2-5.6-2.4
		c-0.7,0.8,1.3,4.2,3.2,6.4c1.9,2.2,2.7,2.1,4,4c1.2,1.8,3,5.5,1.6,7.2c-1.5,1.8-5.8,0.5-8-0.8c-1.5-0.9-2.6-2.1-2.4-2.4
		c0.2-0.4,2.5,0.8,3.2,0c0.2-0.2,0.2-0.5,0-1.6c-0.3-1.6-0.5-2.5-0.8-3.2c-0.9-1.9-3.2-4.2-5.6-4c-2.2,0.2-2.6,2.4-4.8,2.4
		c-2,0-2.7-2-4-1.6c-1.3,0.4-1.1,2.7-2.4,5.6c-0.2,0.4-1.9,4.2-5.6,6.4c-0.4,0.2-6.4,3.7-10.4,0.8c-2.4-1.7-2.9-4.8-3.2-7.2
		c-0.3-2.3-0.7-4.9,0.8-6.4c0.9-0.9,3-1.1,7.2-1.6c3-0.3,3.5-0.3,4-0.8c1.7-1.7-0.8-4.9,0.8-7.2c1.3-1.8,3.3-0.6,6.4-2.4
		c3.6-2.2,2.7-5,5.6-6.4c4.1-2,8.8,2.6,10.4,0.8c1.1-1.1,0.2-4.3-1.6-5.6c-1.7-1.2-3,0-5.6-0.8c-3.2-1-6.2-4.3-5.6-6.4
		c0.4-1.6,2.5-1.4,5.6-4c2.9-2.4,2.7-4.1,4-4.8c4.6-2.6,19.5,10.3,29.7,28.1C846.2,289.4,851.9,303.2,848.7,305.5z"/>
	<path d="M791.7,263.7c-0.6-0.2-3.6-1.3-4.8,0c-1.1,1.2,0.4,3.3-0.8,4.8c-1.1,1.4-2.9,0.2-4.8,1.6c-1.6,1.2-2.6,3.9-1.6,5.6
		c0.7,1.2,2.1,1.5,2.4,1.6c0,0,2.5,0.6,4.9-1.8c0.4-0.4,0.7-0.9,0.7-0.9c0.1-0.1,0.5-0.6,0.8-1.4c0.8-1.8,0.3-3,0.8-3.2
		c0.6-0.2,2.6,1.5,2.4,3.2c-0.2,2.1-3.4,2.7-3.2,4c0.2,1.3,3.5,2.3,6.4,1.6c0.2,0,3.8-1,4.8-4C801.2,270.6,796.2,265.3,791.7,263.7z
		"/>
	<path d="M728.2,277.4c-1,1.1-2.2,0.9-2.4,1.6c-0.3,1.2,3.4,2.1,4,4.8c0.2,1,0.1,2.5-0.8,3.2c-1.8,1.4-6.4-0.4-8.8-3.2
		c-0.9-1-1.2-1.8-2.4-2.4c-0.6-0.3-0.9-0.3-4-0.8c-1.3-0.2-2-0.3-2.3-0.4c-2.1-0.6-3.2-1.4-3.4-1.2c-0.3,0.3,2.5,1.9,2.4,4
		c-0.1,1.6-1.7,3.2-3.2,3.2c-1.5,0-1.9-1.6-3.2-1.6c-1.6,0-2.2,2.5-4,4.8c-2.7,3.5-4.5,2.1-9.6,6.4c-3,2.5-5.2,4.3-5.6,7.2
		c-0.2,1.5,0.1,2.7-0.8,4c-0.9,1.4-2.3,1.7-4,2.4c-1.6,0.7-5.9,2.5-7.2,5.6c-1.3,3.2,1.5,5.3,0,9.6c-0.4,1.1-1.4,3.3-2.4,3.2
		c-1.8-0.2-0.6-7.7-4.8-10.4c-1.5-1-1.5,0-8-0.8c-4.4-0.6-6.3-1.3-8,0c-1,0.7-1,1.4-2.4,2.4c-1.7,1.2-2.7,0.9-4,1.6
		c-4,2-4,9.2-4,9.6c0,1.9,0.1,4,1.6,5.6c1.6,1.8,4.6,2.6,6.4,1.6c1.2-0.7,0.9-1.6,2.4-3.2c1.8-2,5-3.4,6.4-2.4
		c1.1,0.8,0.8,2.9,0.8,3.2c-0.3,2.3-1.9,3-1.6,4c0.4,1.6,4.2,0.4,6.4,2.4c2.5,2.3,0,5.9,2.4,9.6c1.8,2.9,5.9,5,8.8,4
		c3.4-1.1,2.5-5.5,6.4-7.2c3.3-1.5,8.4-0.3,10.4,2.4c0.8,1,0.6,1.6,1.6,2.4c1.9,1.6,5.4,1.6,7.2,0c1.2-1.1,0.8-2.1,1.6-2.4
		c2.1-0.7,4.3,7.2,10.4,8.8c2.7,0.7,3.6-0.5,5.6,0.8c2.7,1.7,3.6,5.5,4,7.2c0.7,3.1,0,3.5,0.8,4.8c1.8,3,7.1,3.1,10.4,3.2
		c6,0.1,7.5-1.5,9.6,0c1.9,1.3,1.5,3,4.8,6.4c1.7,1.8,2,1.6,2.4,2.4c1.3,3-2.9,5.5-4.8,11.3c-2.4,7,1.6,10.2-1.6,14.5
		c-2.4,3.1-7,4.7-7.2,4.8c-3.1,1.1-5.2,0.7-6.4,2.4c-0.4,0.5-0.7,1.2-0.8,4.8c-0.2,5.2,0.3,5,0,6.4c-0.9,4.1-4.8,3.9-8,9.6
		c-1.6,2.7-0.9,3.3-2.4,4.8c-2.2,2.4-5.6,3.3-8,4c-2.8,0.8-4.8,1-4.8,1.6c0,0.8,2.6,0.8,3.2,2.4c0.8,2-2.4,4.1-1.6,5.6
		c0.7,1.4,4,0.2,4.8,1.6c1,1.7-3.3,4.6-2.4,7.2c0.8,2.4,4.9,2.1,5.6,4.8c0.4,1.6-0.6,3-0.8,3.2c-1.8,2.5-6.4,2.9-9.6,1.6
		c-1.8-0.7-2.5-1.7-8-10.4c-4.3-6.7-4.6-7.4-4.8-8.8c-0.5-4.5,2-6,0.8-9.6c-1.2-3.7-4.3-3.3-4.8-6.4c-0.7-3.9,3.7-6.4,2.4-9.6
		c-0.5-1.3-1.4-1.4-2.4-2.4c-4.9-5,3.5-16-0.8-21.7c-2.2-2.9-5.4-1.4-10.4-6.4c-0.8-0.8-0.7-0.8-3.2-4c-7.1-9-8.9-10-8.8-12.9
		c0-2.8,1.8-3.1,1.6-6.4c-0.2-3.6-2.4-4.8-1.6-6.4c1.1-2.3,5.8-0.5,8-3.2c1.8-2.2,1.2-6.5-0.8-8c-1.1-0.8-2.6-0.8-5.6-0.8
		c-3.2,0-3.7,0.6-4.8,0c-1.6-0.8-1.5-2.3-3.2-4.8c-0.3-0.5-1.8-2.6-4-4c-4.1-2.7-6.9-0.6-9.6-3.2c-1.8-1.7-1.6-3.7-3.2-4
		c-1.5-0.3-2,1.2-4,1.6c-1.9,0.4-3.7-0.8-7.2-3.2c-3.5-2.4-5.3-3.6-5.6-5.6c-0.3-1.7,0.7-2,0.8-4c0.1-3.3-2.6-3.6-5.6-9.6
		c-1.8-3.7-2.6-7.3-2.4-8.5c0-0.1,0.1-0.3,0-0.4c-0.3-0.1-2,1.6-2.4,3.2c-0.8,3.3,4,5.4,5.6,12.1c0.2,0.9,0.9,3.5,0,4
		c-1.1,0.7-4-2.4-4.8-3.2c-1.8-1.9-5.2-5.4-5.6-10.4c-0.3-3.1,0.8-3.6,0-5.6c-1-2.6-3.1-2.8-4.8-5.6c0,0-1.2-2-1.6-5.6
		c-1-9.1,14.9-34.7,33.8-51.4c1.1-1,7.2-6.2,12.1-5.6c1.9,0.2,7.3,1.8,8,2.1c0,0,0.3,0.1,0.8,0.3c0,0,0.3,0.1,0.7,0.3
		c3.1,1.2,4.7,1.8,5.8,1.3c1.2-0.5,2.1-2.3,1.6-3.2c-0.9-1.6-5.7,0.5-6.4-0.8c-0.8-1.4,3-6.5,8-7.2c3.8-0.6,7.1,1.5,7.2,1.6
		c1.6,1.1,1.8,1.9,4,3.2c1.9,1.1,3.4,2,4.8,1.6c2.5-0.7,2.5-4.8,4-4.8c1.4,0,3.3,3.2,2.4,4.8c-1.6,2.9-11.4-1.2-12.9,1.6
		c-0.7,1.3,0.7,3.8,2.4,4.8c2.2,1.3,4.7,0.4,5.6,0c2.5-0.9,4.8-3.2,4.8-3.2c3.7,1.1,4,0.8,4,0.8c1.1-0.9-2-4.2-0.8-6.4
		c1.4-2.8,8.7-2.9,9.6-0.8c0.1,0.1,0.2,0.6-0.4,2.2c-1.6,3.8-3.9,5-3.6,5.9c0.4,0.9,3.1,1.3,4.8,0c1.8-1.4,0.9-3.6,2.4-5.6
		c1.6-2.2,4.9-2.3,8.8-2.4c1.5,0,13.1-0.3,14.5,4c0.6,1.9-1.1,3.7,0,4.8c1,1.1,2.9-0.2,4,0.8c1.4,1.3,0.5,5.7-1.6,6.4
		c-1.8,0.7-3.4-1.7-4.8-0.8c-1.2,0.8-0.7,3.1-2.4,4c-0.1,0.1-0.4,0.2-0.9,0.3c-2.3,0.4-9.3-0.2-10.3-3.5c-1-3.3,4.9-6.5,4-8
		c-1.1-1.8-11.1-0.2-14.5,5.6c-0.7,1.3-1,2.6-2.4,3.2c-2.2,1-3.8-1.4-7.2-1.6c-5.1-0.3-9.2,4.7-11.3,7.2c-1.7,2.1-1.7,2.9-1.6,3.2
		c0.5,3.1,8.5,3.9,9.6,4c5.8,0.5,11.2-1,11.3-2.4c0-0.6-0.8-0.8-0.8-1.6c0-1,1.3-1.4,2.4-2.4c2.1-2,0.8-4.3,2.4-5.6
		c1.9-1.6,6.7-0.4,8.8,2.4c1.7,2.1,0.9,4.1,2.4,4.8c2.3,1.2,5.7-2.7,7.2-1.6c1.3,0.9-0.8,3.9,0.8,6.4c1.5,2.5,4.7,1.6,5.6,4
		C729.5,274.7,729.1,276.4,728.2,277.4z"/>
	<path d="M717.7,287c0.2,1.2-2.4,2.6-4,3.2c-0.4,0.1-3.9,1.4-4.8,0c-0.7-1,0.3-3,1.6-4C713,284.3,717.4,285.6,717.7,287z"/>
	<path d="M707.3,289.4c0.1,1.2-1.3,2.5-2.4,2.4c-1.6-0.2-2.4-3.2-1.6-4S707.1,287.9,707.3,289.4z"/>
	<path d="M671.1,330.2c2.5-1.3,4.8-0.6,7.4,0.2c2.6,0.8,2.4,1.2,4.6,1.6c2.3,0.4,3.8,0.2,3.9,0.8c0.1,0.8-1.6,3.2-3.9,3.2
		c-1.6,0-3.4-1.8-6.6-3c-4.2-1.6-7.9,0.6-8.1-0.4C668.4,332.1,669.9,330.8,671.1,330.2z"/>
</g>
<g>
	<path class="st0" d="M726,517c-91,0-165-74-165-165s74-165,165-165s165,74,165,165S817,517,726,517z M726,216.1
		c-74.9,0-135.9,61-135.9,135.9c0,74.9,61,135.9,135.9,135.9c74.9,0,135.9-61,135.9-135.9C861.9,277,801,216.1,726,216.1z"/>
	<path d="M726,189.5c43.4,0,84.2,16.9,114.9,47.6c30.7,30.7,47.6,71.5,47.6,114.9s-16.9,84.2-47.6,114.9
		c-30.7,30.7-71.5,47.6-114.9,47.6s-84.2-16.9-114.9-47.6c-30.7-30.7-47.6-71.5-47.6-114.9s16.9-84.2,47.6-114.9
		C641.8,206.4,682.6,189.5,726,189.5 M726,490.3c76.3,0,138.4-62.1,138.4-138.4c0-76.3-62.1-138.4-138.4-138.4
		c-76.3,0-138.4,62.1-138.4,138.4C587.7,428.3,649.7,490.3,726,490.3 M726,184.5c-92.5,0-167.5,75-167.5,167.5s75,167.5,167.5,167.5
		s167.5-75,167.5-167.5S818.5,184.5,726,184.5L726,184.5z M726,485.3c-73.7,0-133.4-59.7-133.4-133.4c0-73.7,59.7-133.4,133.4-133.4
		c73.7,0,133.4,59.7,133.4,133.4C859.4,425.6,799.7,485.3,726,485.3L726,485.3z"/>
</g>
</svg>
